# xmcd
#
# Track frame offsets:
#  150
#  12886
#  28492
#  41684
#  60557
#  77183
#  101603
#  116932
#  132120
#  141801
#  158035
#  181402
#  201142
#  226634
#  243801
#
# Disc length: 3426 seconds
#
# Revision: 0
# Processed by: cddbd v1.4PL0 Copyright (c) Steve Scherf et al.
# Submitted via: AltoMP3_Maker 3.0
#
DISCID=c40d600f
DTITLE=Billy Crash - Vollmondaache
DYEAR=1900
DGENRE=
TTITLE0=Verrückt uff Rock un Roll
TTITLE1=Trotzdem mam´mer gespielt om Rhoi
TTITLE2=Mer Rhoihesse sinn wie Knorze
TTITLE3=Vollmondaache
TTITLE4=Packeis
TTITLE5=Weit, weit, weg
TTITLE6=Loßt mer moi Freiheit
TTITLE7=Halt Dich gonz fest
TTITLE8=Ohne Hern is mer wie bleed
TTITLE9=Erinnerst de dich noch
TTITLE10=De Kall
TTITLE11=Wenn Du mich willst
TTITLE12=Schick mer en Schlüssel
TTITLE13=Wenn du es werklich willst
TTITLE14=Weck, Worscht un Woi
EXTD=
EXTT0=
EXTT1=
EXTT2=
EXTT3=
EXTT4=
EXTT5=
EXTT6=
EXTT7=
EXTT8=
EXTT9=
EXTT10=
EXTT11=
EXTT12=
EXTT13=
EXTT14=
PLAYORDER=
